# xmcd
#
# Track frame offsets:
# 150
# 20755
# 41007
# 60546
# 76528
# 100739
# 114271
# 129501
# 144219
# 159309
# 178219
# 192909
# 209955
#
# Disc length: 3061 seconds
#
#
# Revision: 0
# Processed by: cddbd v1.5.2PL0 Copyright (c) Steve Scherf et al.
# Submitted via: FreeRIP 2.951 
#
DISCID=ac0bf30d
DTITLE=tony lewis - naked
DYEAR=2001
DGENRE=Country
TTITLE0=A Song For You
TTITLE1=Ain't Dead Yet
TTITLE2=The Promises Of Love
TTITLE3=The Autumn Hasn't Even Begun
TTITLE4=Across The Borderline
TTITLE5=When There's No One Around
TTITLE6=When Josephine Went Dancin'
TTITLE7=Baby It's You
TTITLE8=A Chaque Cerrefour
TTITLE9=I Dont Have The Heart
TTITLE10=What You Need
TTITLE11=The Streets Of Laredo
TTITLE12=The Love You Left
EXTD=
EXTT0=
EXTT1=
EXTT2=
EXTT3=
EXTT4=
EXTT5=
EXTT6=
EXTT7=
EXTT8=
EXTT9=
EXTT10=
EXTT11=
EXTT12=
PLAYORDER=
